<svg width="152" height="152" viewBox="0 0 152 152" fill="none" xmlns="http://www.w3.org/2000/svg">
<path d="M98.4347 43.835C98.3988 43.8379 98.363 43.8379 98.3271 43.835C98.363 43.8379 98.3988 43.8379 98.4347 43.835Z" fill="#313553"/>
<path d="M98.5654 43.8215C98.5881 43.8185 98.61 43.8132 98.6319 43.8057C98.61 43.8132 98.5881 43.8185 98.5654 43.8215Z" fill="#313553"/>
<path d="M98.2373 43.8057C98.2585 43.8133 98.2804 43.8186 98.303 43.8215C98.2804 43.8186 98.2585 43.8133 98.2373 43.8057Z" fill="#313553"/>
<path d="M98.5403 23.7041C102.379 23.7036 106.132 24.8416 109.324 26.9741C112.516 29.1066 115.004 32.1378 116.473 35.6844C117.943 39.231 118.327 43.1336 117.578 46.8988C116.83 50.6639 114.981 54.1224 112.267 56.8369C109.552 59.5514 106.094 61.4 102.328 62.1488C98.5636 62.8976 94.6603 62.5131 91.1141 61.0438C87.5678 59.5745 84.536 57.0864 82.4036 53.8944C80.2712 50.7023 79.133 46.9495 79.1338 43.1106C79.1345 37.9638 81.1788 33.0279 84.8185 29.3886C88.4574 25.7492 93.3934 23.7045 98.5403 23.7041ZM114.81 43.1129C114.811 39.8938 113.857 36.7467 112.07 34.0696C110.283 31.3925 107.741 29.3057 104.767 28.0729C101.794 26.8402 98.5215 26.517 95.3639 27.1442C92.2063 27.7715 89.3063 29.3209 87.0293 31.5966C84.7522 33.8722 83.202 36.772 82.5731 39.9291C81.9441 43.0862 82.2658 46.3588 83.4973 49.3331C84.7289 52.3074 86.8146 54.8497 89.4908 56.6385C92.1671 58.4274 95.3134 59.3824 98.5327 59.3829H98.5373C100.675 59.3838 102.792 58.9637 104.767 58.1463C106.742 57.329 108.536 56.1305 110.048 54.6194C111.559 53.1082 112.758 51.314 113.576 49.3393C114.394 47.3646 114.815 45.2481 114.815 43.1106L114.81 43.1129Z" fill="#FFE8BB"/>
<path d="M98.4355 43.835C98.47 43.838 98.5045 43.838 98.539 43.835C98.5045 43.838 98.47 43.838 98.4355 43.835Z" fill="#313553"/>
<path d="M98.8675 43.6846L98.7686 43.7505C98.803 43.7306 98.836 43.7086 98.8675 43.6846Z" fill="#313553"/>
<path d="M97.7549 43.2715C97.7579 43.2939 97.7632 43.316 97.7707 43.3372C97.7632 43.3159 97.7579 43.2939 97.7549 43.2715Z" fill="#313553"/>
<path d="M98.6328 43.8058C98.6746 43.793 98.7164 43.7773 98.756 43.7588C98.7164 43.7781 98.6754 43.7939 98.6328 43.8058Z" fill="#313553"/>
<path d="M97.7401 43.1406C97.7364 43.175 97.7364 43.2097 97.7401 43.2441C97.7371 43.2097 97.7371 43.175 97.7401 43.1406Z" fill="#313553"/>
<path d="M98.9261 43.6319L98.8673 43.6869C98.8357 43.7105 98.8025 43.7324 98.7679 43.7525H98.7566C98.7167 43.7711 98.6745 43.787 98.6323 43.7999C98.6105 43.8074 98.5886 43.8126 98.566 43.8157H98.5397C98.505 43.8187 98.4704 43.8187 98.4357 43.8157C98.3996 43.8187 98.3634 43.8187 98.3272 43.8157H98.3046C98.282 43.8128 98.2602 43.8075 98.2391 43.7999C98.1276 43.7678 98.0259 43.7076 97.9446 43.6252C97.8941 43.575 97.8519 43.518 97.818 43.4557C97.7992 43.4155 97.7834 43.374 97.7706 43.3314C97.7631 43.3102 97.7578 43.2882 97.7548 43.2659C97.754 43.2568 97.754 43.2478 97.7548 43.2388C97.751 43.2042 97.751 43.1693 97.7548 43.1348C97.7548 43.0436 97.7729 42.9533 97.8075 42.869C97.8422 42.7847 97.8934 42.7082 97.9582 42.6437L99.1422 41.4551V43.1348C99.1422 43.2281 99.1234 43.3203 99.0858 43.4059C99.0488 43.4915 98.9946 43.5684 98.9261 43.6319Z" fill="#313553"/>
<path d="M99.1302 30.7902V41.1796C98.6715 41.0435 98.1788 41.0747 97.7412 41.2678V30.7902C97.7412 30.6059 97.8143 30.4293 97.9446 30.2991C98.0749 30.1688 98.2512 30.0957 98.4357 30.0957C98.5268 30.0956 98.6172 30.1135 98.7016 30.1484C98.786 30.1832 98.8628 30.2344 98.9268 30.2989C98.9916 30.3634 99.0428 30.44 99.0775 30.5243C99.1121 30.6086 99.1302 30.699 99.1302 30.7902Z" fill="#313553"/>
<path d="M99.1302 41.1801V41.4634L97.9446 42.649C97.8798 42.7134 97.8286 42.79 97.7939 42.8742C97.7593 42.9585 97.7412 43.0489 97.7412 43.1401V41.2683C98.1788 41.0752 98.6715 41.0439 99.1302 41.1801Z" fill="#313553"/>
<path d="M97.7695 43.3369C97.7822 43.3791 97.7979 43.4203 97.8166 43.4601C97.7979 43.4203 97.7822 43.3791 97.7695 43.3369Z" fill="#313553"/>
<path d="M104.331 38.2279L100.355 42.2072C100.139 41.7811 99.7797 41.4452 99.3398 41.2589L103.346 37.2502C103.41 37.1799 103.486 37.1231 103.572 37.0833C103.657 37.0435 103.75 37.0216 103.844 37.0188C103.938 37.0161 104.033 37.0326 104.12 37.0674C104.208 37.1021 104.288 37.1544 104.355 37.2209C104.422 37.2874 104.474 37.3669 104.509 37.4545C104.545 37.5421 104.561 37.6359 104.56 37.7303C104.558 37.8247 104.536 37.9175 104.497 38.0034C104.457 38.0892 104.401 38.1661 104.331 38.2294V38.2279Z" fill="#313553"/>
<path d="M99.3416 41.2539C99.7815 41.4402 100.141 41.7761 100.357 42.2022L98.9258 43.6334C98.9906 43.5696 99.0425 43.4932 99.0772 43.409C99.1126 43.3247 99.1299 43.2343 99.1292 43.143V41.4626L99.3378 41.2539H99.3416Z" fill="#313553"/>
<path d="M100.573 43.1122C100.574 43.4759 100.476 43.833 100.29 44.1458C100.104 44.4585 99.8374 44.7152 99.5181 44.8888C99.1979 45.0623 98.8379 45.1463 98.4741 45.1318C98.111 45.1173 97.7577 45.0049 97.4534 44.8064C97.1484 44.6079 96.9028 44.3308 96.7424 44.0043C96.5819 43.6777 96.5134 43.3139 96.5428 42.9514C96.5721 42.5888 96.6987 42.241 96.9096 41.9446C97.1205 41.6482 97.4075 41.4142 97.7404 41.2676V43.1393C97.7374 43.174 97.7374 43.2087 97.7404 43.2433C97.7397 43.2523 97.7397 43.2614 97.7404 43.2704C97.7434 43.2927 97.7487 43.3147 97.7562 43.336C97.769 43.3785 97.7849 43.42 97.8037 43.4603C97.8376 43.5225 97.8798 43.5796 97.9302 43.6297C98.0116 43.7122 98.1133 43.7724 98.2248 43.8045C98.2458 43.812 98.2677 43.8173 98.2903 43.8203H98.3129C98.349 43.8232 98.3852 43.8232 98.4213 43.8203C98.456 43.8232 98.4906 43.8232 98.5253 43.8203H98.5524C98.575 43.8172 98.5969 43.8119 98.6187 43.8045C98.6616 43.7924 98.7031 43.7765 98.743 43.757H98.7543L98.8537 43.6915L98.9162 43.6395L100.347 42.2083C100.493 42.4878 100.57 42.7974 100.573 43.1122Z" fill="#FDD158"/>
<path d="M45.3611 78.1569C45.6898 77.827 46.0805 77.5656 46.5107 77.3871C46.941 77.2086 47.4022 77.1174 47.8679 77.1182C48.7524 77.1355 49.602 77.4654 50.2662 78.0499L50.3769 78.1569C50.7067 78.4861 50.9682 78.877 51.1465 79.3078C51.3247 79.7387 51.4162 80.1997 51.4157 80.6659C51.4154 81.0757 51.3451 81.4817 51.2078 81.8674C50.7979 81.496 50.3665 81.1495 49.916 80.8286C49.7465 80.7096 49.5476 80.6396 49.341 80.626C49.1345 80.6132 48.9282 80.6561 48.7447 80.7518C48.5612 80.8482 48.4075 80.9921 48.3005 81.1691C48.1934 81.3469 48.137 81.5495 48.1376 81.7566H47.7263C47.7279 81.4945 47.6382 81.2399 47.4727 81.0365C47.3071 80.8332 47.076 80.6938 46.819 80.6426C46.5619 80.5906 46.2949 80.6298 46.0637 80.7533C45.8325 80.8768 45.6515 81.0772 45.5517 81.3197C45.5359 81.3559 45.459 81.5457 45.346 81.838L45.1721 81.7566V79.2062H44.6357C44.8115 78.8152 45.0573 78.4597 45.3611 78.1569Z" fill="#313553"/>
<path d="M51.2153 81.8665C50.9508 82.5994 50.452 83.2246 49.7962 83.6449C49.4283 83.2992 49.0384 82.9783 48.6287 82.683C48.379 82.5166 48.2057 82.2575 48.1469 81.9629C48.0881 81.6684 48.1487 81.3634 48.3153 81.1133C48.4819 80.8632 48.7409 80.69 49.0353 80.6312C49.3297 80.5725 49.6354 80.6335 49.8851 80.7999L49.9235 80.8263C50.3741 81.1472 50.8054 81.4952 51.2153 81.8665Z" fill="#313553"/>
<path d="M54.3533 89.15C54.5825 89.4709 54.7335 89.8408 54.7939 90.2309C54.8543 90.6204 54.8226 91.0188 54.7013 91.3939C54.5795 91.7653 54.3586 92.096 54.0625 92.3505C53.7652 92.6051 53.4025 92.7716 53.0155 92.8304L52.9048 92.8484C52.6577 92.8914 52.4204 92.9592 52.1191 93.039L52.2434 92.8417C53.0789 91.6508 53.7461 90.3507 54.226 88.9775L54.3533 89.15Z" fill="#FDD158"/>
<path d="M51.3737 85.002L54.2293 88.9776C53.7494 90.3507 53.0822 91.6508 52.2467 92.8417L52.1224 93.039C51.3637 93.2394 50.5928 93.39 49.8145 93.491C49.6147 93.5203 49.4117 93.5203 49.2119 93.491C49.5561 92.8643 49.9478 92.2421 50.3418 91.629C51.2291 90.2264 52.1496 88.778 52.1789 87.6451C52.1253 86.7276 51.7717 85.8531 51.1726 85.1556L51.3737 85.002Z" fill="#313553"/>
<path d="M84.3657 97.4201C84.3793 100.841 78.7586 104.434 78.7586 104.434L78.5823 104.459C78.4919 103.83 78.3805 103.194 78.2539 102.57C79.8267 101.488 82.6325 99.4493 82.863 97.3658C83.0189 95.9656 82.8765 95.015 81.752 94.6052C82.9353 94.4651 84.3559 94.8184 84.3657 97.4201Z" fill="#FDD158"/>
<path d="M141.336 97.6372C141.872 100.054 141.619 101.292 140.707 101.8C140.322 101.895 139.926 101.937 139.53 101.923V101.789C140.872 96.6354 137.291 97.2079 136.363 96.133C135.435 95.0581 135.869 92.8632 135.459 91.7431C135.048 90.623 133.823 90.4897 133.176 90.1327C132.132 89.5557 131.628 88.1117 131.607 86.1819C131.607 85.2909 131.4 84.3742 130.823 84.0435C129.304 83.1773 128.544 85.9176 128.515 86.0238C128.192 85.3594 127.802 84.7297 127.349 84.1459C127.312 83.9674 127.264 83.7919 127.207 83.6187L127.349 83.5712C127.639 82.6319 128.404 81.2 129.565 80.7518C129.71 80.6984 129.862 80.666 130.017 80.6569C131.207 80.5816 132.879 81.6866 133.185 84.1437C133.542 86.9307 134.089 87.7796 134.752 88.0937C135.416 88.4078 136.635 88.587 137.035 89.7048C137.435 90.8227 136.99 93.0191 137.939 94.094C138.888 95.1689 140.796 95.2186 141.336 97.6372Z" fill="#FFE8BB"/>
<path d="M51.3734 85.0024L51.1633 85.153C50.7497 84.6115 50.2891 84.1075 49.7871 83.6466C50.443 83.2263 50.9418 82.6011 51.2062 81.8682C52.5816 83.1035 54.5114 85.2849 54.4323 87.7239C54.4155 88.1494 54.3473 88.5705 54.229 88.9795L51.3734 85.0024Z" fill="#313553"/>
<path d="M76.2099 95.2543C76.0929 94.8987 75.8996 94.5726 75.6436 94.2999C75.3875 94.0265 75.0749 93.8126 74.7275 93.6725C75.9155 92.9275 77.223 92.392 78.5924 92.0907C80.7256 91.7306 85.0093 91.6063 85.8326 95.2061C84.4978 92.1042 81.1444 92.8823 80.1757 93.2175C78.8154 93.8404 77.5198 94.5974 76.3093 95.4772H76.2529C76.2438 95.4019 76.2296 95.3273 76.2099 95.2543Z" fill="white"/>
<path d="M130.005 80.6635C129.85 80.6725 129.698 80.7049 129.553 80.7584C128.39 81.2104 127.627 82.6415 127.338 83.5778L127.195 83.6252C127.033 83.1258 126.742 82.6769 126.352 82.3252C125.962 81.9726 125.487 81.7286 124.973 81.6179C124.678 81.5342 124.375 81.4793 124.069 81.4529C124.183 81.0221 124.429 80.6379 124.773 80.3547C125.116 80.0707 125.54 79.902 125.984 79.8711C127.363 79.8756 128.727 80.1445 130.005 80.6635Z" fill="#FDD158"/>
<path d="M39.364 68.5703C39.8266 68.5704 40.2847 68.6616 40.7121 68.8388C41.1395 69.0159 41.5278 69.2755 41.8548 69.6026C42.1819 69.9298 42.4413 70.3183 42.6182 70.7457C42.7952 71.1732 42.8862 71.6313 42.8862 72.094C42.8862 72.152 42.8862 72.21 42.8862 72.268C42.7724 74.5571 42.6368 77.399 42.56 79.2091H26.064V77.1573L22.2564 71.865C22.034 71.5538 21.9017 71.1874 21.8738 70.8061C21.8457 70.4247 21.9233 70.043 22.0978 69.7027C22.2724 69.3625 22.5373 69.0769 22.8634 68.8771C23.1894 68.6774 23.5643 68.5712 23.9467 68.5703H39.364Z" fill="#FDD158"/>
<path d="M50.2655 78.049C49.6015 77.4644 48.7517 77.1345 47.8672 77.1172C47.9657 74.6814 48.3872 72.2696 49.1206 69.9448C49.2822 69.5376 49.5626 69.1884 49.9253 68.9426C50.2879 68.6968 50.7162 68.5657 51.1543 68.5664H52.7964C53.1796 68.5666 53.5554 68.6724 53.8824 68.8722C54.2094 69.0721 54.475 69.3583 54.6499 69.6993C54.8248 70.0403 54.9024 70.4228 54.874 70.805C54.8456 71.1872 54.7123 71.5542 54.4889 71.8656L50.2655 78.049Z" fill="#FDD158"/>
<path d="M114.526 76.6445H121.203C120.942 77.4196 120.453 78.0975 119.799 78.5894C119.146 79.0813 118.359 79.3645 117.542 79.4006H111.585C110.767 79.3645 109.981 79.0813 109.327 78.5894C108.674 78.0975 108.184 77.4196 107.924 76.6445H114.526Z" fill="#313553"/>
<path d="M49.8139 93.4988C50.5921 93.3979 51.363 93.2472 52.1218 93.0469C51.1878 94.5285 50.2665 96.0425 50.3893 97.21C50.4052 97.3577 50.3918 97.5068 50.3499 97.6492C50.3081 97.7923 50.2385 97.9249 50.1453 98.0401C50.052 98.1561 49.9369 98.2518 49.8065 98.3233C49.6761 98.3941 49.5329 98.4386 49.3853 98.4544C49.3444 98.4566 49.3034 98.4566 49.2625 98.4544C48.9822 98.4559 48.7114 98.3535 48.5026 98.1667C48.2938 97.9791 48.1619 97.7215 48.1326 97.4428C48.0757 96.0493 48.4484 94.6716 49.2 93.4966C49.4033 93.5282 49.6102 93.5289 49.8139 93.4988Z" fill="#313553"/>
<path d="M17.7105 110.716C17.7105 111.945 26.9874 112.938 38.4517 112.938C43.5293 112.938 48.1813 112.744 51.7841 112.42H51.8112C51.6569 115.516 51.8846 118.618 52.4891 121.658L52.3309 121.699C50.4682 122.377 46.1423 123.401 38.3659 123.401C33.6585 123.413 28.9733 122.755 24.4512 121.448C23.3891 121.128 22.4128 120.573 21.5957 119.824C18.3666 117.613 17.541 114.144 17.541 110.891V110.714L17.7105 110.716Z" fill="#313553"/>
<path d="M26.0614 81.7556C25.7339 81.7397 25.4251 81.5981 25.199 81.3609C24.9728 81.1236 24.8467 80.808 24.8467 80.4803C24.8467 80.1527 24.9728 79.837 25.199 79.5998C25.4251 79.3625 25.7339 79.2209 26.0614 79.2051V81.7556Z" fill="#313553"/>
<path d="M74.7281 93.6773C75.0758 93.8167 75.3887 94.0306 75.6449 94.304C75.901 94.5767 76.0941 94.9028 76.2105 95.2591C76.23 95.3337 76.2444 95.409 76.2534 95.4851C76.5811 98.0891 71.407 101.562 64.4335 103.361C57.46 105.16 51.2676 104.621 50.2832 102.193C50.2505 102.12 50.224 102.045 50.2041 101.967C49.7521 100.235 51.9079 98.0574 55.4918 96.2474C57.5643 95.2237 59.7396 94.423 61.981 93.8581C67.3795 92.4623 72.3185 92.4714 74.7281 93.6773Z" fill="#FDD158"/>
<path d="M136.346 96.1397C137.286 97.2123 140.872 96.6398 139.51 101.796V101.928C138.092 101.964 135.806 101.852 134.859 101.441C133.427 100.819 134.974 98.7256 134.915 97.1422C134.856 95.5589 133.313 96.1758 132.227 94.7093C130.946 92.9859 132.396 91.7114 131.343 91.2278C130.632 90.8504 130.03 90.2968 129.594 89.6211C129.432 88.37 129.058 87.155 128.489 86.0282C128.519 85.922 129.279 83.1817 130.797 84.0479C131.374 84.3763 131.573 85.2953 131.582 86.1864C131.602 88.1162 132.109 89.5601 133.15 90.1371C133.797 90.4941 135.033 90.6305 135.433 91.7475C135.833 92.8646 135.405 95.0625 136.346 96.1397Z" fill="#313553"/>
<path d="M76.5287 125.678C76.5287 125.678 90.1698 126.875 83.5925 129.705C75.6602 133.121 63.295 131.918 60.4598 130.926C57.0702 129.736 56.9798 128.361 56.9775 128.29C58.9262 129.482 61.5618 129.983 65.3973 129.924H65.4357C71.375 130.019 74.4362 128.775 76.5287 125.678Z" fill="#313553"/>
<path d="M51.9282 110.046C51.892 110.542 51.8423 111.378 51.8107 112.419H51.7836C48.1793 112.743 43.5228 112.935 38.4512 112.935C26.9959 112.935 17.71 111.942 17.71 110.713C17.71 109.485 26.9876 108.491 38.452 108.491C43.6154 108.491 48.1108 108.692 51.7406 109.028L51.8694 108.986C52.0773 109.664 52.3086 110.342 52.5617 111.007C52.3954 110.903 52.2553 110.762 52.1521 110.595C52.049 110.429 51.9855 110.24 51.9666 110.045L51.9282 110.046Z" fill="#FFE8BB"/>
<path d="M117.184 80.9596V81.1856H111.948V79.4004H117.186L117.184 80.9596Z" fill="#FFE8BB"/>
<path d="M54.1571 125.453C54.8668 126.603 55.8321 127.574 56.978 128.29C51.0341 130.274 32.1105 129.704 24.8357 127.471C23.3708 127.061 22.0862 126.171 21.1885 124.943C22.3424 125.421 28.0693 127.697 38.3729 127.697C43.7192 127.777 49.045 127.019 54.1571 125.453Z" fill="#313553"/>
<path d="M127.343 84.1495H101.789C101.877 83.5372 102.151 82.9655 102.573 82.5135C102.996 82.0608 103.546 81.7475 104.151 81.6172C105.137 81.2895 109.21 81.2036 111.946 81.1855H117.184C119.404 81.2014 122.449 81.2609 124.071 81.4522C124.376 81.4786 124.679 81.5335 124.975 81.6172C125.488 81.7279 125.964 81.9719 126.354 82.3244C126.743 82.6762 127.034 83.1251 127.197 83.6245C127.255 83.797 127.304 83.9718 127.343 84.1495Z" fill="white"/>
<path d="M42.5557 79.2051H44.6354C44.4266 79.663 44.3192 80.1609 44.3206 80.6649C44.3199 81.0347 44.377 81.403 44.49 81.7556H42.4834C42.4834 81.2825 42.4834 80.9066 42.4992 80.6649C42.5083 80.3545 42.5286 79.8408 42.5557 79.2051Z" fill="#313553"/>
<path d="M47.7258 81.7558C47.725 81.9057 47.6951 82.0534 47.6377 82.192C47.6377 82.21 47.3093 82.9866 46.9455 84.0886C46.1666 83.8792 45.4824 83.4107 45.0059 82.7599C45.1347 82.3916 45.2529 82.082 45.3456 81.8372C45.4586 81.5404 45.5354 81.3551 45.5512 81.319C45.651 81.0764 45.832 80.8761 46.0633 80.7525C46.2944 80.629 46.5615 80.5898 46.8185 80.641C47.0755 80.693 47.3066 80.8324 47.4722 81.0357C47.6377 81.2391 47.7274 81.4937 47.7258 81.7558Z" fill="#313553"/>
<path d="M45.1709 81.7559L45.3449 81.8372C45.2523 82.079 45.134 82.3916 45.0052 82.7599C44.7814 82.4549 44.6073 82.1159 44.4893 81.7559H45.1709Z" fill="#313553"/>
<path d="M42.4833 90.3395C42.4874 91.3089 42.11 92.2407 41.4327 92.9344C40.7553 93.6274 39.8324 94.0266 38.8632 94.0454C38.4534 94.0454 38.067 94.059 37.7454 94.059C33.0821 94.0002 28.4297 93.595 23.8262 92.8485L23.7261 92.8327C23.3383 92.7732 22.9748 92.6075 22.6763 92.3529C22.3778 92.0983 22.1563 91.7654 22.0365 91.3918C21.915 91.0174 21.8833 90.6189 21.9442 90.2295C22.0051 89.8408 22.1567 89.471 22.3868 89.1516L26.0588 84.0356V81.7578H42.4795C42.4674 83.7652 42.4742 87.5276 42.4833 90.3395Z" fill="#FDD158"/>
<path d="M135.735 118.475C135.735 118.475 147.025 121.305 128.739 124.387C110.842 127.4 96.436 122.996 93.3975 118.475C93.3975 118.475 98.1218 123 114.564 123C133.081 122.996 135.735 118.475 135.735 118.475Z" fill="#313553"/>
<path d="M77.3277 83.2214C78.4975 82.9774 80.1102 82.6557 80.8679 82.5789C81.0615 82.557 81.2566 82.557 81.4495 82.5789C82.4422 82.7009 82.678 83.4519 82.0038 83.8526C81.463 84.1697 78.9555 83.9136 77.3473 83.708C77.2885 83.7012 77.2343 83.6741 77.1944 83.6312C77.1537 83.5882 77.1304 83.5325 77.1281 83.4737C77.1259 83.4142 77.1447 83.357 77.1808 83.3103C77.217 83.2643 77.269 83.2327 77.327 83.2214H77.3277Z" fill="#FFE8BB"/>
<path d="M78.3235 110.937C78.4598 110.46 78.5773 109.953 78.6767 109.421C78.6745 109.389 78.6797 109.356 78.6925 109.326L78.8304 109.351C78.8304 109.351 79.7471 119.189 77.6757 123.633C77.3495 124.341 76.9676 125.021 76.533 125.667C74.4405 128.755 71.3793 130.009 65.4468 129.916H65.4084C61.5729 129.975 58.9373 129.464 56.9887 128.282C55.8389 127.569 54.8697 126.599 54.1565 125.449C53.7842 124.865 53.4524 124.255 53.163 123.626C52.8773 122.992 52.6538 122.332 52.4956 121.655C51.8863 118.616 51.6586 115.513 51.8177 112.417C51.8493 111.376 51.899 110.539 51.9352 110.043H51.9736C51.9925 110.238 52.056 110.427 52.1592 110.593C52.2623 110.76 52.4024 110.901 52.5687 111.005C54.2589 112.335 59.3674 113.302 65.4046 113.302C71.5473 113.309 76.7334 112.304 78.3235 110.937Z" fill="#FFE8BB"/>
<path d="M51.1619 85.1532C51.7589 85.8515 52.1122 86.7252 52.1682 87.6427C52.1321 88.7725 51.2184 90.224 50.3311 91.6266C49.9447 92.2397 49.553 92.8619 49.2012 93.4886C48.6913 93.4163 48.2238 93.1647 47.8822 92.7798C47.5407 92.3941 47.3474 91.9 47.3369 91.3848C47.2895 89.0045 47.2465 85.502 47.3754 84.1695C47.535 84.1921 47.6962 84.2034 47.8574 84.2034C48.5389 84.2041 49.206 84.0075 49.7782 83.6377C50.2834 84.1009 50.7464 84.6079 51.1619 85.1532Z" fill="#FDD158"/>
<path d="M45.1716 79.2051V81.7556H44.4937C44.3807 81.403 44.3236 81.0347 44.3242 80.6649C44.3229 80.1609 44.4303 79.663 44.6391 79.2051H45.1716Z" fill="#313553"/>
<path d="M64.4331 103.364C71.4066 101.565 76.5806 98.0915 76.253 95.4883H76.3094C76.3094 95.4883 76.5354 96.1082 76.8435 97.1123C77.4054 98.9057 77.8754 100.727 78.2528 102.568C78.3794 103.192 78.4908 103.828 78.5812 104.457C78.6874 105.188 78.7643 105.912 78.8072 106.608C78.8682 107.514 78.8298 108.423 78.692 109.32C78.6942 109.352 78.6889 109.385 78.6761 109.415C78.5767 109.947 78.4502 110.454 78.3229 110.931C76.7411 112.287 71.5437 113.302 65.3973 113.302C59.36 113.302 54.2493 112.336 52.5613 111.006C52.3082 110.338 52.0769 109.65 51.869 108.985C51.1868 106.76 50.6508 104.493 50.2646 102.197H50.2827C51.2672 104.624 57.4686 105.161 64.4331 103.364Z" fill="white"/>
<path d="M86.2973 96.9621C86.9647 101.799 78.8192 106.604 78.8192 106.604H78.7966C78.7582 105.907 78.6813 105.183 78.5706 104.452L78.7469 104.427C78.7469 104.427 84.3675 100.839 84.3532 97.4133C84.3532 94.8116 82.9221 94.4583 81.7402 94.5939C81.2559 94.6602 80.7814 94.7807 80.3241 94.9539C79.1649 95.555 78.0592 96.2533 77.0182 97.0419L76.8329 97.1029C76.5203 96.0989 76.2988 95.4789 76.2988 95.4789C77.5176 94.6082 78.8154 93.855 80.1765 93.2298C81.1452 92.8946 84.4986 92.1165 85.8334 95.2183C86.0669 95.7757 86.2228 96.3625 86.2973 96.9621Z" fill="white"/>
<path d="M81.4518 82.5654C83.3636 82.7236 88.2235 85.149 89.4746 89.2693C91.2282 95.0459 90.5676 102.947 93.9707 107.999C94.4068 108.656 94.9062 109.269 95.4614 109.83L95.493 109.798C94.6991 103.334 97.8235 100.216 97.8235 100.216C97.5275 98.7933 97.526 97.3252 97.8183 95.9016C98.1113 94.4787 98.692 93.1304 99.5251 91.9395C99.2735 89.1503 100.08 86.3685 101.785 84.1472H127.339C127.791 84.731 128.181 85.36 128.504 86.0251C129.073 87.1549 129.447 88.3737 129.608 89.6293C129.706 90.3991 129.706 91.1787 129.608 91.9485C130.44 93.1379 131.019 94.4855 131.311 95.9068C131.603 97.3282 131.602 98.7948 131.307 100.216C131.307 100.216 134.425 103.334 133.633 109.798C133.633 109.798 136.524 113.871 135.73 118.472C135.73 118.472 133.077 122.998 114.564 122.998C98.1203 122.998 93.3982 118.472 93.3982 118.472C93.1549 116.943 93.2453 115.38 93.6626 113.889C92.5938 112.861 91.6357 111.723 90.8048 110.495C87.4153 105.443 88.7417 97.0872 86.9882 91.3128C85.2346 85.5385 77.3467 83.7126 77.3467 83.7126C78.9548 83.9183 81.4624 84.1646 82.0032 83.8572C82.6811 83.4565 82.4416 82.7055 81.4488 82.5835L81.4518 82.5654Z" fill="#FDD158"/>
<path d="M47.3847 84.1768C47.2369 84.1564 47.0905 84.1271 46.9463 84.0886C47.3101 82.9867 47.6242 82.2101 47.6385 82.192C47.6959 82.0534 47.7259 81.9058 47.7266 81.7559H48.1364C48.1363 81.9381 48.1802 82.1174 48.2645 82.2786C48.3487 82.4406 48.4706 82.5791 48.62 82.6831C49.0297 82.9776 49.4196 83.2992 49.7875 83.645C49.2153 84.0148 48.5482 84.2114 47.8667 84.2107C47.7055 84.2107 47.5444 84.1994 47.3847 84.1768Z" fill="#313553"/>
<path d="M121.203 76.6446H107.924C109.054 75.0402 114.526 74.9814 114.526 74.9814C114.526 74.9814 120.082 75.0402 121.203 76.6446Z" fill="white"/>
<path d="M26.0776 79.2051H42.5555C42.5283 79.8408 42.508 80.35 42.499 80.6649C42.499 80.9066 42.4854 81.2825 42.4831 81.7556H26.0625V79.2051H26.0776Z" fill="#313553"/>
<path d="M46.5723 93.4658C47.1246 95.4701 47.365 97.5476 47.2849 99.625C46.8751 103.458 42.4724 104.417 42.2871 104.456C42.2127 104.471 42.1371 104.479 42.0612 104.48C41.7782 104.485 41.5039 104.382 41.2925 104.194C41.0812 104.007 40.9482 103.746 40.9198 103.464C40.8914 103.183 40.9696 102.901 41.1392 102.674C41.3087 102.447 41.5571 102.292 41.8352 102.24C41.86 102.24 44.8105 101.562 45.0455 99.3847C45.0877 97.5514 44.8593 95.7217 44.3676 93.9546C43.9953 92.476 43.7554 90.9673 43.6505 89.4457C43.5804 87.2613 44.4241 84.4472 45.0063 82.7705C45.4829 83.4213 46.1671 83.8898 46.9459 84.0992C46.3246 85.791 45.9733 87.5709 45.9049 89.3719C46.0106 90.7534 46.2339 92.1227 46.5723 93.4658Z" fill="#313553"/>
<path d="M98.5416 62.5216C109.261 62.5216 117.95 53.832 117.95 43.1129C117.95 32.3937 109.261 23.7041 98.5416 23.7041C87.8222 23.7041 79.1328 32.3937 79.1328 43.1129C79.1328 53.832 87.8222 62.5216 98.5416 62.5216Z" stroke="#313553" stroke-width="0.226349" stroke-linecap="round" stroke-linejoin="round"/>
<path d="M114.813 43.1117C114.814 46.331 113.86 49.4782 112.073 52.1554C110.286 54.8325 107.743 56.9194 104.77 58.152C101.796 59.3846 98.523 59.7076 95.3661 59.0802C92.2085 58.4527 89.3078 56.903 87.0315 54.627C84.7545 52.351 83.2043 49.4509 82.5761 46.2936C81.9471 43.1364 82.2695 39.8637 83.5011 36.8894C84.7334 33.9153 86.8191 31.3731 89.4961 29.5846C92.1724 27.7962 95.3194 26.8416 98.5388 26.8418H98.5433C102.859 26.8418 106.997 28.5559 110.048 31.6071C113.099 34.6583 114.813 38.7967 114.813 43.1117Z" stroke="#313553" stroke-width="0.226349" stroke-linecap="round" stroke-linejoin="round"/>
<path d="M111.946 79.4014V80.9598" stroke="#313553" stroke-width="0.226349" stroke-linecap="round" stroke-linejoin="round"/>
<path d="M114.526 79.4006H117.539C118.356 79.3645 119.143 79.0813 119.796 78.5894C120.45 78.0975 120.939 77.4196 121.201 76.6445H107.921C108.182 77.4196 108.671 78.0975 109.324 78.5894C109.978 79.0813 110.764 79.3645 111.582 79.4006H114.523" stroke="#313553" stroke-width="0.226349" stroke-linecap="round" stroke-linejoin="round"/>
<path d="M117.185 79.4014V80.9598" stroke="#313553" stroke-width="0.226349" stroke-linecap="round" stroke-linejoin="round"/>
<path d="M121.203 76.6446C120.074 75.0402 114.526 74.9814 114.526 74.9814C114.526 74.9814 109.048 75.0402 107.924 76.6446" stroke="#313553" stroke-width="0.226349" stroke-linecap="round" stroke-linejoin="round"/>
<path d="M127.341 84.1499C127.304 83.9713 127.256 83.7958 127.199 83.6226C127.036 83.1232 126.746 82.6743 126.356 82.3225C125.966 81.97 125.491 81.7259 124.977 81.6152C124.682 81.5316 124.379 81.4766 124.073 81.4502C122.451 81.2582 119.403 81.1994 117.186 81.1836H111.947C109.211 81.2017 105.139 81.2875 104.152 81.6152C103.547 81.7455 102.997 82.0581 102.574 82.5108C102.152 82.9635 101.878 83.5352 101.79 84.1476L127.341 84.1499Z" stroke="#313553" stroke-width="0.226349" stroke-linecap="round" stroke-linejoin="round"/>
<path d="M95.4944 109.8C94.7005 103.336 97.825 100.218 97.825 100.218C97.5289 98.7954 97.5274 97.3274 97.8197 95.9037C98.1127 94.4809 98.6934 93.1326 99.5265 91.9417C99.2749 89.1524 100.082 86.3715 101.786 84.1494" stroke="#313553" stroke-width="0.226349" stroke-linecap="round" stroke-linejoin="round"/>
<path d="M128.507 86.0303C129.077 87.1594 129.451 88.3774 129.612 89.6323C129.71 90.4021 129.71 91.1817 129.612 91.9515C130.443 93.1409 131.023 94.4884 131.315 95.9098C131.607 97.3311 131.606 98.7977 131.311 100.219C131.311 100.219 134.429 103.337 133.636 109.801C133.636 109.801 136.528 113.874 135.734 118.475C135.734 118.475 133.08 123.001 114.568 123.001C98.124 123.001 93.4019 118.475 93.4019 118.475C93.1586 116.946 93.249 115.383 93.6663 113.892" stroke="#313553" stroke-width="0.226349" stroke-linecap="round" stroke-linejoin="round"/>
<path d="M127.343 84.1494C127.795 84.7332 128.186 85.3629 128.508 86.0272" stroke="#313553" stroke-width="0.226349" stroke-linecap="round" stroke-linejoin="round"/>
<path d="M100.15 100.758C100.15 100.758 104.8 102.434 113.215 102.443C124.212 102.454 128.738 100.758 128.738 100.758" stroke="#313553" stroke-width="0.226349" stroke-linecap="round" stroke-linejoin="round"/>
<path d="M102.497 92.1211C106.123 92.738 109.797 93.031 113.476 92.9971C122.143 92.9971 126.164 92.1211 126.164 92.1211" stroke="#313553" stroke-width="0.226349" stroke-linecap="round" stroke-linejoin="round"/>
<path d="M99.2461 110.033C103.751 111.516 108.473 112.239 113.215 112.172C124.212 112.172 129.417 110.033 129.417 110.033" stroke="#313553" stroke-width="0.226349" stroke-linecap="round" stroke-linejoin="round"/>
<path d="M77.3477 83.7109C77.3477 83.7109 85.2326 85.5368 86.9891 91.3111C88.7457 97.0855 87.4034 105.44 90.8058 110.493C91.6366 111.722 92.5948 112.859 93.6636 113.887C95.1482 115.358 96.8664 116.571 98.748 117.478" stroke="#313553" stroke-width="0.226349" stroke-linecap="round" stroke-linejoin="round"/>
<path d="M81.4521 82.5654C83.3639 82.7236 88.2238 85.149 89.4749 89.2693C91.2285 95.0459 90.5679 102.947 93.971 107.999C94.4071 108.656 94.9065 109.269 95.4617 109.83C96.5644 111.021 98.0325 111.812 99.6339 112.077" stroke="#313553" stroke-width="0.226349" stroke-linecap="round" stroke-linejoin="round"/>
<path d="M124.069 81.4519C124.183 81.0211 124.429 80.6369 124.773 80.3537C125.116 80.0697 125.54 79.901 125.984 79.8701C127.362 79.8709 128.727 80.1383 130.004 80.658" stroke="#313553" stroke-width="0.226349" stroke-linecap="round" stroke-linejoin="round"/>
<path d="M128.508 86.0292C128.537 85.9229 129.297 83.1827 130.816 84.0489C131.393 84.3773 131.592 85.2962 131.601 86.1873C131.621 88.1171 132.128 89.5611 133.169 90.1381C133.816 90.4951 135.052 90.6315 135.452 91.7485C135.852 92.8656 135.406 95.0628 136.356 96.1384C137.306 97.214 140.881 96.6385 139.519 101.794" stroke="#313553" stroke-width="0.226349" stroke-linecap="round" stroke-linejoin="round"/>
<path d="M129.615 89.6316C130.049 90.3095 130.651 90.8639 131.364 91.2383C132.418 91.7128 130.97 92.9964 132.248 94.7198C133.334 96.1863 134.878 95.5709 134.937 97.1527C134.995 98.7345 133.45 100.823 134.88 101.451C135.828 101.863 138.113 101.974 139.531 101.938C139.928 101.952 140.323 101.91 140.708 101.815C141.612 101.307 141.873 100.069 141.337 97.6521C140.801 95.2357 138.871 95.1883 137.947 94.1119C137.024 93.0355 137.454 90.8428 137.043 89.7228C136.633 88.6027 135.433 88.4264 134.76 88.1116C134.088 87.7967 133.55 86.9486 133.193 84.1616C132.878 81.7045 131.203 80.5958 130.025 80.6748C129.87 80.6839 129.718 80.7163 129.573 80.7697C128.41 81.2217 127.647 82.6529 127.357 83.5891" stroke="#313553" stroke-width="0.226349" stroke-linecap="round" stroke-linejoin="round"/>
<path d="M81.4507 82.5799C81.2578 82.558 81.0627 82.558 80.8691 82.5799C80.1106 82.6552 78.4979 82.9783 77.3289 83.2224C77.2709 83.2337 77.2189 83.2653 77.1828 83.3113C77.1466 83.358 77.1278 83.4152 77.1301 83.4747C77.1323 83.5335 77.1557 83.5892 77.1963 83.6321C77.2363 83.6751 77.2905 83.7022 77.3493 83.709C78.9574 83.9146 81.465 84.1609 82.0058 83.8536C82.6792 83.4514 82.4389 82.7004 81.4507 82.5799Z" stroke="#313553" stroke-width="0.226349" stroke-linecap="round" stroke-linejoin="round"/>
<path d="M93.3975 118.475C96.436 123 110.842 127.401 128.739 124.387C147.025 121.305 135.735 118.475 135.735 118.475" stroke="#313553" stroke-width="0.226349" stroke-linecap="round" stroke-linejoin="round"/>
<path d="M99.1299 41.1807C99.2007 41.2011 99.2707 41.2262 99.3385 41.256" stroke="#313553" stroke-width="0.226349" stroke-linecap="round" stroke-linejoin="round"/>
<path d="M100.356 42.2072C100.536 42.5631 100.606 42.9642 100.558 43.36C100.51 43.7557 100.345 44.1282 100.085 44.4305C99.8249 44.7328 99.4814 44.9511 99.0972 45.058C98.7131 45.1648 98.3056 45.1554 97.9275 45.0309C97.5486 44.9064 97.2149 44.6724 96.9693 44.3584C96.7238 44.0445 96.5769 43.6648 96.5468 43.2672C96.5166 42.8696 96.6055 42.4721 96.8014 42.1251C96.998 41.7779 97.2925 41.4966 97.648 41.3169C97.6781 41.3011 97.709 41.2868 97.7406 41.2725" stroke="#313553" stroke-width="0.226349" stroke-linecap="round" stroke-linejoin="round"/>
<path d="M98.5557 27.1279V28.938" stroke="#313553" stroke-width="0.226349" stroke-linecap="round" stroke-linejoin="round"/>
<path d="M98.5557 57.2197V59.0298" stroke="#313553" stroke-width="0.226349" stroke-linecap="round" stroke-linejoin="round"/>
<path d="M82.5693 43.1143H84.3824" stroke="#313553" stroke-width="0.226349" stroke-linecap="round" stroke-linejoin="round"/>
<path d="M112.89 43.1143H114.702" stroke="#313553" stroke-width="0.226349" stroke-linecap="round" stroke-linejoin="round"/>
<path d="M87.2979 31.8564L88.5791 33.137" stroke="#313553" stroke-width="0.226349" stroke-linecap="round" stroke-linejoin="round"/>
<path d="M108.578 53.1338L109.859 54.415" stroke="#313553" stroke-width="0.226349" stroke-linecap="round" stroke-linejoin="round"/>
<path d="M87.2979 54.4619L88.5791 53.1807" stroke="#313553" stroke-width="0.226349" stroke-linecap="round" stroke-linejoin="round"/>
<path d="M108.737 33.0254L110.018 31.7441" stroke="#313553" stroke-width="0.226349" stroke-linecap="round" stroke-linejoin="round"/>
<path d="M92.0732 28.5381L92.8114 30.1922" stroke="#313553" stroke-width="0.226349" stroke-linecap="round" stroke-linejoin="round"/>
<path d="M104.334 56.0195L105.074 57.6737" stroke="#313553" stroke-width="0.226349" stroke-linecap="round" stroke-linejoin="round"/>
<path d="M83.9893 49.6493L85.6434 48.9111" stroke="#313553" stroke-width="0.226349" stroke-linecap="round" stroke-linejoin="round"/>
<path d="M111.677 37.2971L113.33 36.5566" stroke="#313553" stroke-width="0.226349" stroke-linecap="round" stroke-linejoin="round"/>
<path d="M105.676 28.7627L104.868 30.3852" stroke="#313553" stroke-width="0.226349" stroke-linecap="round" stroke-linejoin="round"/>
<path d="M92.2604 55.7021L91.4521 57.3239" stroke="#313553" stroke-width="0.226349" stroke-linecap="round" stroke-linejoin="round"/>
<path d="M84.2393 35.9473L85.8617 36.7555" stroke="#313553" stroke-width="0.226349" stroke-linecap="round" stroke-linejoin="round"/>
<path d="M111.38 49.4619L113.002 50.2701" stroke="#313553" stroke-width="0.226349" stroke-linecap="round" stroke-linejoin="round"/>
<path d="M78.7571 110.382C78.6569 110.597 78.5078 110.787 78.3225 110.936C76.7407 112.292 71.5433 113.307 65.3969 113.307C59.3596 113.307 54.2489 112.341 52.5609 111.011C52.3946 110.907 52.2545 110.766 52.1514 110.599C52.0482 110.432 51.9847 110.244 51.9658 110.049" stroke="#313553" stroke-width="0.226349" stroke-linecap="round" stroke-linejoin="round"/>
<path d="M77.0285 114.167C74.7047 115.146 70.3653 115.796 65.3969 115.796C60.4286 115.796 56.0861 115.142 53.7646 114.167" stroke="#313553" stroke-width="0.226349" stroke-linecap="round" stroke-linejoin="round"/>
<path d="M56.9761 128.29C55.8309 127.574 54.8663 126.603 54.1575 125.452C53.7852 124.868 53.4533 124.259 53.1639 123.629C52.8782 122.995 52.6547 122.336 52.4966 121.658C51.8873 118.619 51.6596 115.516 51.8186 112.42C51.8503 111.379 51.9 110.542 51.9362 110.046C51.9588 109.728 51.9746 109.551 51.9746 109.551" stroke="#313553" stroke-width="0.226349" stroke-linecap="round" stroke-linejoin="round"/>
<path d="M78.8185 109.346C78.8185 109.346 79.7352 119.186 77.6645 123.629C77.3384 124.337 76.9565 125.017 76.5219 125.663C74.4294 128.751 71.3682 130.005 65.4357 129.912H65.3973C61.5618 129.971 58.9262 129.46 56.9775 128.278" stroke="#313553" stroke-width="0.226349" stroke-linecap="round" stroke-linejoin="round"/>
<path d="M74.7281 93.6773C75.0758 93.8167 75.3887 94.0306 75.6449 94.304C75.901 94.5767 76.0941 94.9028 76.2105 95.2591C76.23 95.3337 76.2444 95.409 76.2534 95.4851C76.5811 98.0891 71.407 101.562 64.4335 103.361C57.46 105.16 51.2676 104.621 50.2832 102.193C50.2505 102.12 50.224 102.045 50.2041 101.967C49.7521 100.235 51.9079 98.0574 55.4918 96.2474C57.5643 95.2237 59.7396 94.423 61.981 93.8581C67.3795 92.4623 72.3185 92.4714 74.7281 93.6773Z" stroke="#313553" stroke-width="0.226349" stroke-linecap="round" stroke-linejoin="round"/>
<path d="M52.0735 102.158C51.4943 99.9111 56.0084 96.8025 62.1556 95.2184C68.3028 93.6343 73.7555 94.1684 74.3378 96.4176" stroke="#313553" stroke-width="0.226349" stroke-linecap="round" stroke-linejoin="round"/>
<path d="M75.6506 100.088C72.4055 102.466 68.7271 104.188 64.822 105.156C60.8266 106.25 56.6451 106.487 52.5518 105.851" stroke="#313553" stroke-width="0.226349" stroke-linecap="round" stroke-linejoin="round"/>
<path d="M52.573 111.011C52.3199 110.343 52.0887 109.655 51.8808 108.99C51.1986 106.765 50.6626 104.497 50.2764 102.202" stroke="#313553" stroke-width="0.226349" stroke-linecap="round" stroke-linejoin="round"/>
<path d="M76.3096 95.4844C76.3096 95.4844 76.5355 96.1043 76.8436 97.1084C77.4055 98.9018 77.8756 100.723 78.2529 102.564C78.3795 103.189 78.491 103.824 78.5813 104.453C78.6876 105.184 78.7644 105.908 78.8073 106.604C78.8683 107.51 78.8299 108.419 78.6921 109.316C78.6943 109.349 78.6891 109.381 78.6763 109.411C78.5768 109.943 78.4503 110.45 78.323 110.927" stroke="#313553" stroke-width="0.226349" stroke-linecap="round" stroke-linejoin="round"/>
<path d="M76.3096 95.4856C77.5223 94.6096 78.8171 93.8526 80.176 93.2259C81.1446 92.8907 84.4981 92.1126 85.8328 95.2144C86.0663 95.7726 86.2222 96.3608 86.2968 96.9612C86.9642 101.798 78.8186 106.603 78.8186 106.603" stroke="#313553" stroke-width="0.226349" stroke-linecap="round" stroke-linejoin="round"/>
<path d="M77.0293 97.0493C78.0703 96.2607 79.176 95.5625 80.3353 94.9614C80.7955 94.7911 81.2738 94.6729 81.7604 94.6104C82.9437 94.4748 84.3651 94.8363 84.3741 97.4297C84.3877 100.851 78.767 104.444 78.767 104.444" stroke="#313553" stroke-width="0.226349" stroke-linecap="round" stroke-linejoin="round"/>
<path d="M74.7246 93.6803C75.9125 92.9353 77.2201 92.3998 78.5895 92.0985C80.7227 91.7384 85.0063 91.6141 85.8296 95.2139" stroke="#313553" stroke-width="0.226349" stroke-linecap="round" stroke-linejoin="round"/>
<path d="M81.7598 94.6094C82.8896 95.0191 83.0267 95.9652 82.8708 97.37C82.6448 99.4535 79.8345 101.492 78.2617 102.574" stroke="#313553" stroke-width="0.226349" stroke-linecap="round" stroke-linejoin="round"/>
<path d="M56.9775 128.29C56.9775 128.358 57.0574 129.733 60.4598 130.926C63.295 131.918 75.6602 133.121 83.5925 129.705C90.1698 126.875 76.5287 125.678 76.5287 125.678" stroke="#313553" stroke-width="0.226349" stroke-linecap="round" stroke-linejoin="round"/>
<path d="M51.8336 68.5705L59.7186 53.9576C59.8148 53.7749 59.8623 53.5703 59.8562 53.3638C59.8502 53.1573 59.791 52.9559 59.6842 52.779C59.5775 52.6021 59.4268 52.4559 59.2469 52.3543C59.0669 52.2528 58.8639 52.1995 58.6572 52.1995H56.8721C56.4566 52.1995 56.0531 52.3396 55.7271 52.5972L54.7344 53.3783C54.1739 53.8207 53.4843 54.0674 52.7705 54.081C52.0568 54.0946 51.3582 53.8743 50.7814 53.4537L49.5393 52.5498C49.2234 52.3207 48.8433 52.1973 48.4531 52.1973H18.0847C17.8781 52.1976 17.675 52.2513 17.4952 52.3532C17.3154 52.455 17.165 52.6015 17.0585 52.7786C16.952 52.9557 16.8929 53.1573 16.8872 53.3638C16.8815 53.5703 16.9291 53.7749 17.0256 53.9576L24.9105 68.5644" stroke="#313553" stroke-width="0.226349" stroke-linecap="round" stroke-linejoin="round"/>
<path d="M26.0621 79.2053V77.1573L22.2545 71.865C22.032 71.5537 21.8996 71.1871 21.8717 70.8056C21.8439 70.424 21.9216 70.0421 22.0964 69.7018C22.2713 69.3614 22.5365 69.0758 22.8629 68.8762C23.1893 68.6766 23.5644 68.5708 23.947 68.5703H39.3576C39.8202 68.5704 40.2782 68.6616 40.7056 68.8388C41.133 69.0159 41.5213 69.2755 41.8484 69.6026C42.1754 69.9298 42.4348 70.3183 42.6119 70.7457C42.7888 71.1732 42.8798 71.6313 42.8797 72.094C42.8797 72.152 42.8797 72.21 42.8797 72.268C42.766 74.5571 42.6304 77.399 42.5536 79.2091" stroke="#313553" stroke-width="0.226349" stroke-linecap="round" stroke-linejoin="round"/>
<path d="M42.4833 81.7559C42.4674 83.7648 42.4833 87.5272 42.4833 90.3375C42.4874 91.3069 42.11 92.2387 41.4327 92.9324C40.7553 93.6254 39.8324 94.0246 38.8632 94.0435C38.4534 94.0435 38.067 94.057 37.7454 94.057C33.0821 93.9983 28.4297 93.593 23.8262 92.8466L23.7261 92.8308C23.3383 92.7712 22.9748 92.6055 22.6763 92.3509C22.3778 92.0963 22.1563 91.7634 22.0365 91.3898C21.915 91.0154 21.8833 90.617 21.9442 90.2276C22.0051 89.8389 22.1567 89.469 22.3868 89.1497L26.0588 84.0337V81.7559" stroke="#313553" stroke-width="0.226349" stroke-linecap="round" stroke-linejoin="round"/>
<path d="M50.2642 78.049L54.4823 71.8656C54.7055 71.555 54.8389 71.1891 54.8679 70.8078C54.8969 70.4265 54.8203 70.0446 54.6467 69.7039C54.4731 69.3632 54.2091 69.0768 53.8835 68.8761C53.558 68.6756 53.1835 68.5684 52.8011 68.5664H51.1651C50.7269 68.5657 50.2987 68.6968 49.936 68.9426C49.5733 69.1884 49.293 69.5376 49.1313 69.9448C48.3979 72.2696 47.9765 74.6814 47.8779 77.1172" stroke="#313553" stroke-width="0.226349" stroke-linecap="round" stroke-linejoin="round"/>
<path d="M49.211 93.4959C48.7011 93.4235 48.2336 93.172 47.8921 92.7871C47.5505 92.4014 47.3572 91.9073 47.3467 91.3921C47.2992 89.0118 47.2563 85.5092 47.3851 84.1768" stroke="#313553" stroke-width="0.226349" stroke-linecap="round" stroke-linejoin="round"/>
<path d="M54.229 88.9785L54.3533 89.1503C54.5825 89.4711 54.7335 89.841 54.7939 90.2312C54.8543 90.6206 54.8226 91.019 54.7013 91.3942C54.5795 91.7655 54.3586 92.0962 54.0625 92.3508C53.7652 92.6054 53.4025 92.7718 53.0155 92.8306L52.9048 92.8487C52.6577 92.8916 52.4204 92.9594 52.1191 93.0392" stroke="#313553" stroke-width="0.226349" stroke-linecap="round" stroke-linejoin="round"/>
<path d="M54.1562 125.454C49.0444 127.022 43.7184 127.78 38.3721 127.698C28.0685 127.698 22.3416 125.422 21.1876 124.944C20.8702 124.814 20.6172 124.563 20.4837 124.247C20.3503 123.931 20.3472 123.575 20.4751 123.256L20.927 122.108L19.6405 120.921C15.4977 118.088 14.889 113.393 15.1715 109.343C15.6536 102.2 23.7946 93.0303 23.7946 93.0303" stroke="#313553" stroke-width="0.226349" stroke-linecap="round" stroke-linejoin="round"/>
<path d="M52.9385 93.0264C52.9385 93.0264 54.0578 94.2865 55.4905 96.2367" stroke="#313553" stroke-width="0.226349" stroke-linecap="round" stroke-linejoin="round"/>
<path d="M18.0527 106.984C19.7385 101.124 25.3223 94.8369 25.3223 94.8369" stroke="#313553" stroke-width="0.226349" stroke-linecap="round" stroke-linejoin="round"/>
<path d="M52.3466 121.7C50.4838 122.378 46.1579 123.401 38.3815 123.401C33.6741 123.413 28.989 122.756 24.4669 121.448C23.4047 121.13 22.4285 120.574 21.6113 119.824C18.3822 117.614 17.5566 114.145 17.5566 110.892V110.715C17.5566 110.287 17.577 109.866 17.6064 109.452" stroke="#313553" stroke-width="0.226349" stroke-linecap="round" stroke-linejoin="round"/>
<path d="M23.1406 70.0225H38.3704" stroke="#313553" stroke-width="0.226349" stroke-linecap="round" stroke-linejoin="round"/>
<path d="M23.1406 91.1064C24.379 91.3836 25.6336 91.5825 26.897 91.7015C28.5692 91.822 38.3704 92.3794 38.3704 92.3794" stroke="#313553" stroke-width="0.226349" stroke-linecap="round" stroke-linejoin="round"/>
<path d="M27.9912 77.1182H37.0391" stroke="#313553" stroke-width="0.226349" stroke-linecap="round" stroke-linejoin="round"/>
<path d="M30.7549 83.8779H37.7465" stroke="#313553" stroke-width="0.226349" stroke-linecap="round" stroke-linejoin="round"/>
<path d="M49.9395 77.1182H50.6149" stroke="#313553" stroke-width="0.226349" stroke-linecap="round" stroke-linejoin="round"/>
<path d="M51.7836 112.419C48.1793 112.743 43.5228 112.935 38.4512 112.935C26.9959 112.935 17.71 111.942 17.71 110.713C17.71 109.485 26.9876 108.491 38.4519 108.491C43.6154 108.491 48.1108 108.692 51.7406 109.028" stroke="#313553" stroke-width="0.226349" stroke-linecap="round" stroke-linejoin="round"/>
<path d="M21.1855 124.943C22.0833 126.171 23.3678 127.061 24.8327 127.471C32.1075 129.704 51.0312 130.274 56.975 128.29" stroke="#313553" stroke-width="0.226349" stroke-linecap="round" stroke-linejoin="round"/>
<path d="M135.16 106.214H147.303" stroke="#313553" stroke-width="0.226349" stroke-linecap="round" stroke-linejoin="round"/>
<path d="M82.3867 106.214H87.1065" stroke="#313553" stroke-width="0.226349" stroke-linecap="round" stroke-linejoin="round"/>
<path d="M4.18652 106.214H14.5044" stroke="#313553" stroke-width="0.226349" stroke-linecap="round" stroke-linejoin="round"/>
<path d="M30.7695 51.246C30.4327 50.6446 30.2551 49.9671 30.2535 49.2778C30.0004 40.8415 48.601 50.0311 48.7757 43.1103C48.9505 36.1895 33.616 45.6623 33.0164 38.5984C32.4168 31.5345 47.4696 38.5193 47.4334 33.1344C47.3973 27.7495 35.0758 33.7317 34.779 29.3599C34.4822 24.9881 45.8516 28.4372 45.8516 24.8194C45.8516 21.2015 40.0185 23.6066 39.3082 20.5199C38.5294 17.1468 42.5027 16.1804 43.9482 17.0904" stroke="#313553" stroke-width="0.226349" stroke-linecap="round" stroke-linejoin="round"/>
<path d="M35.9089 65.7932C34.2517 57.7923 48.7765 64.8494 48.7765 57.3237C48.7765 51.8417 39.083 54.5548 33.7207 53.1719" stroke="#313553" stroke-width="0.226349" stroke-linecap="round" stroke-linejoin="round"/>
</svg>
